<svg width="21" height="21" viewBox="0 0 21 21" fill="none" xmlns="http://www.w3.org/2000/svg">
<path d="M19.182 10.2429C19.2064 10.0435 19.1885 9.84115 19.1294 9.64914C19.0703 9.45714 18.9714 9.27975 18.8392 9.12857C18.7053 8.97618 18.5405 8.85405 18.3558 8.77031C18.171 8.68656 17.9706 8.64311 17.7677 8.64285H2.42487C2.22204 8.64311 2.02158 8.68656 1.83684 8.77031C1.6521 8.85405 1.48731 8.97618 1.35344 9.12857C1.22116 9.27975 1.12225 9.45714 1.06317 9.64914C1.00409 9.84115 0.986176 10.0435 1.01059 10.2429L2.08201 18.8143C2.12412 19.1627 2.29303 19.4835 2.55651 19.7153C2.82 19.9472 3.15962 20.074 3.51059 20.0714H16.7106C17.0616 20.074 17.4012 19.9472 17.6647 19.7153C17.9281 19.4835 18.097 19.1627 18.1392 18.8143L19.182 10.2429Z" stroke="black" stroke-width="1.71429" stroke-linecap="round" stroke-linejoin="round"/>
<path d="M3.66772 8.64286V7.92857C3.66772 6.22361 4.34502 4.58848 5.55061 3.38288C6.7562 2.17729 8.39133 1.5 10.0963 1.5C11.8013 1.5 13.4364 2.17729 14.642 3.38288C15.8476 4.58848 16.5249 6.22361 16.5249 7.92857V8.64286" stroke="black" stroke-width="1.71429" stroke-linecap="round" stroke-linejoin="round"/>
<path d="M7.23914 12.9286V15.7857" stroke="black" stroke-width="1.71429" stroke-linecap="round" stroke-linejoin="round"/>
<path d="M12.9535 12.9286V15.7857" stroke="black" stroke-width="1.71429" stroke-linecap="round" stroke-linejoin="round"/>
</svg>
