<svg width="14" height="25" viewBox="0 0 14 25" fill="none" xmlns="http://www.w3.org/2000/svg">
<path d="M8.67131 7.16918C8.67131 5.39752 9.55714 5.39752 10.443 5.39752H11.506C11.6835 5.3999 11.8596 5.3667 12.0241 5.29988C12.1885 5.23305 12.3379 5.13396 12.4634 5.00845C12.5889 4.88295 12.688 4.73356 12.7548 4.56913C12.8216 4.40469 12.8548 4.22853 12.8524 4.05105V2.38569C12.8525 2.20736 12.8171 2.03082 12.7483 1.86629C12.6795 1.70176 12.5787 1.55254 12.4518 1.42727C12.3249 1.30201 12.1744 1.2032 12.009 1.13658C11.8436 1.06997 11.6666 1.03687 11.4883 1.03922L8.97249 1.00379C8.23996 0.975453 7.51001 1.10641 6.83301 1.38761C6.15601 1.66881 5.54809 2.09357 5.0512 2.63256C4.55432 3.17155 4.18031 3.81194 3.95498 4.50953C3.72966 5.20712 3.65838 5.9453 3.74608 6.67312V9.24203H2.34647C1.98936 9.24203 1.64688 9.38389 1.39437 9.6364C1.14186 9.88891 1 10.2314 1 10.5885V12.2539C1 12.611 1.14186 12.9534 1.39437 13.206C1.64688 13.4585 1.98936 13.6003 2.34647 13.6003H3.74608V23.1142C3.74608 23.3491 3.83941 23.5744 4.00554 23.7405C4.17166 23.9067 4.39698 24 4.63191 24H7.83863C8.06423 23.9864 8.27612 23.8872 8.43092 23.7225C8.58572 23.5578 8.67172 23.3402 8.67131 23.1142V13.6003H10.2304C10.5875 13.6003 10.93 13.4585 11.1825 13.206C11.435 12.9534 11.5768 12.611 11.5768 12.2539V10.5885C11.5768 10.2314 11.435 9.88891 11.1825 9.6364C10.93 9.38389 10.5875 9.24203 10.2304 9.24203H8.67131V7.16918Z" stroke="black" stroke-width="1.71429" stroke-linecap="round" stroke-linejoin="round"/>
</svg>
