<svg width="26" height="25" viewBox="0 0 26 25" fill="none" xmlns="http://www.w3.org/2000/svg">
<path d="M13.125 17.6111C15.9478 17.6111 18.2361 15.3228 18.2361 12.5C18.2361 9.67724 15.9478 7.38892 13.125 7.38892C10.3022 7.38892 8.01392 9.67724 8.01392 12.5C8.01392 15.3228 10.3022 17.6111 13.125 17.6111Z" stroke="black" stroke-width="1.5" stroke-linecap="round" stroke-linejoin="round"/>
<path d="M1.625 17.6111V7.38889C1.625 3.86041 4.48541 1 8.01389 1H18.2361C21.7646 1 24.625 3.86041 24.625 7.38889V17.6111C24.625 21.1396 21.7646 24 18.2361 24H8.01389C4.48541 24 1.625 21.1396 1.625 17.6111Z" stroke="black" stroke-width="1.5"/>
<path d="M20.1528 5.48564L20.1662 5.47083" stroke="black" stroke-width="1.5" stroke-linecap="round" stroke-linejoin="round"/>
</svg>
