<svg width="16" height="20" viewBox="0 0 16 20" fill="none" xmlns="http://www.w3.org/2000/svg">
<path d="M1 17.3615C1 14.9484 2.69732 12.893 5.00404 12.5127L5.21182 12.4784C7.05892 12.1739 8.94108 12.1739 10.7882 12.4784L10.996 12.5127C13.3027 12.893 15 14.9484 15 17.3615C15 18.4045 14.1815 19.25 13.1719 19.25H2.82813C1.81848 19.25 1 18.4045 1 17.3615Z" stroke="#363853" stroke-width="1.5"/>
<path d="M12.0834 5.1875C12.0834 7.36212 10.2552 9.125 8.00002 9.125C5.74486 9.125 3.91669 7.36212 3.91669 5.1875C3.91669 3.01288 5.74486 1.25 8.00002 1.25C10.2552 1.25 12.0834 3.01288 12.0834 5.1875Z" stroke="#363853" stroke-width="1.5"/>
</svg>
